<svg xmlns="http://www.w3.org/2000/svg" width="1200" height="630">
  <defs>
    <linearGradient id="grad" x1="0%" y1="0%" x2="100%" y2="100%">
      <stop offset="0%" style="stop-color:#000000;stop-opacity:0.45"/>
      <stop offset="100%" style="stop-color:#ffffff;stop-opacity:0.04"/>
    </linearGradient>
    <linearGradient id="bot" x1="0%" y1="0%" x2="0%" y2="100%">
      <stop offset="0%" style="stop-color:#000000;stop-opacity:0"/>
      <stop offset="100%" style="stop-color:#000000;stop-opacity:0.55"/>
    </linearGradient>
  </defs>
  <rect width="1200" height="630" fill="#1a1a2e"/>
  <rect width="1200" height="630" fill="url(#grad)"/>
  <rect x="0" y="380" width="1200" height="250" fill="url(#bot)"/>
  <g opacity="0.1" fill="white">
    <circle cx="950" cy="90" r="5"/><circle cx="1000" cy="90" r="5"/><circle cx="1050" cy="90" r="5"/><circle cx="1100" cy="90" r="5"/>
    <circle cx="950" cy="140" r="5"/><circle cx="1000" cy="140" r="5"/><circle cx="1050" cy="140" r="5"/><circle cx="1100" cy="140" r="5"/>
    <circle cx="950" cy="190" r="5"/><circle cx="1000" cy="190" r="5"/><circle cx="1050" cy="190" r="5"/><circle cx="1100" cy="190" r="5"/>
    <circle cx="950" cy="240" r="5"/><circle cx="1000" cy="240" r="5"/><circle cx="1050" cy="240" r="5"/><circle cx="1100" cy="240" r="5"/>
  </g>
  <rect x="0" y="0" width="8" height="630" fill="rgba(255,255,255,0.3)"/>
  <rect x="8" y="0" width="1192" height="3" fill="rgba(255,255,255,0.2)"/>
  <text x="80" y="80" font-family="Arial, sans-serif" font-size="20" font-weight="bold" fill="rgba(255,255,255,0.65)" letter-spacing="5">MONEY &amp; FINANCE</text>
  <text x="1130" y="80" font-family="Georgia, serif" font-size="22" font-weight="bold" fill="rgba(255,255,255,0.5)" text-anchor="end" letter-spacing="2">EXPAT JAPAN</text>
  <text x="80" y="295" font-family="Georgia, serif" font-size="60" font-weight="bold" fill="white" text-anchor="start">Earthquake Insurance in Japan</text>
    <text x="80" y="369" font-family="Georgia, serif" font-size="56" font-weight="bold" fill="rgba(255,255,255,0.9)" text-anchor="start">Do Foreigners Need It?</text>
  <rect x="0" y="600" width="1200" height="30" fill="rgba(0,0,0,0.35)"/>
  <text x="80" y="621" font-family="Arial, sans-serif" font-size="18" fill="rgba(255,255,255,0.7)">expatsjapan.com</text>
  <text x="1130" y="621" font-family="Arial, sans-serif" font-size="18" fill="rgba(255,255,255,0.45)" text-anchor="end">Read More →</text>
</svg>